Coordinates
version=1
nRows=29
nColumns=24
inDegrees=yes

Units are S.I. units (second, meters, Newtons, ...)
Angles are in degrees.

endheader
time	pelvis_tilt	pelvis_list	pelvis_rotation	pelvis_tx	pelvis_ty	pelvis_tz	hip_flexion_r	hip_adduction_r	hip_rotation_r	knee_angle_r	ankle_angle_r	subtalar_angle_r	mtp_angle_r	hip_flexion_l	hip_adduction_l	hip_rotation_l	knee_angle_l	ankle_angle_l	subtalar_angle_l	mtp_angle_l	lumbar_extension	lumbar_bending	lumbar_rotation
      4.14000000	     14.66654739	     10.74944362	     19.46787432	     -0.19321649	      0.73662211	     -0.24693616	     10.40498283	    -13.43879710	    -10.19098966	    -12.04617860	     18.41928747	     12.02382441	      0.00000000	    -27.60853111	      3.86149032	     12.47296036	    -30.23944001	     31.53015776	     15.34958406	      0.00000000	    -36.20127898	      2.76700230	    -14.35029655
      4.14500000	     14.74502143	     10.27056343	     19.21378431	     -0.18404479	      0.73615636	     -0.24639762	     10.44947262	    -12.64367313	     -9.53203813	    -12.91731118	     17.97609064	     10.98680798	      0.00000000	    -27.29581690	      3.44907798	     12.22780780	    -31.98724068	     30.32111141	     14.99114811	      0.00000000	    -35.87079230	      3.04159782	    -13.84210548
      4.15000000	     14.84702099	      9.76507570	     18.94981701	     -0.17489538	      0.73575194	     -0.24583227	     10.44873425	    -11.79856929	     -8.87037537	    -13.77683140	     17.44424637	      9.78421148	      0.00000000	    -26.92283191	      3.01724884	     11.92845155	    -33.83668414	     28.90373999	     14.64474475	      0.00000000	    -35.57180471	      3.34779712	    -13.31468222
      4.15500000	     14.94061679	      9.24043155	     18.67840026	     -0.16579974	      0.73538578	     -0.24528167	     10.45152539	    -10.94014442	     -8.25768752	    -14.65439374	     16.86174293	      8.59055622	      0.00000000	    -26.45994752	      2.59825136	     11.61475116	    -35.78166043	     27.28708622	     14.23291235	      0.00000000	    -35.28079390	      3.67705605	    -12.78522420
      4.16000000	     15.03360709	      8.69546502	     18.40207966	     -0.15679794	      0.73505449	     -0.24472381	     10.46944369	    -10.06908794	     -7.72866223	    -15.57909739	     16.26349457	      7.43184725	      0.00000000	    -25.90863719	      2.18364257	     11.27972857	    -37.81715818	     25.48931026	     13.69550308	      0.00000000	    -35.01508235	      4.03159417	    -12.26223349
      4.16500000	     15.12222511	      8.13208823	     18.12228435	     -0.14789669	      0.73476717	     -0.24417175	     10.49650009	     -9.18978362	     -7.26777653	    -16.52565410	     15.67676374	      6.33706543	      0.00000000	    -25.26763623	      1.77175422	     10.92437050	    -39.92595947	     23.51537986	     13.06633483	      0.00000000	    -34.77076905	      4.41322281	    -11.74065077
      4.17000000	     15.20876222	      7.54719442	     17.83988102	     -0.13911334	      0.73452576	     -0.24362278	     10.53118786	     -8.29949579	     -6.87881779	    -17.48990296	     15.13532201	      5.33938132	      0.00000000	    -24.53961209	      1.35871098	     10.55981042	    -42.09223984	     21.38447819	     12.32437974	      0.00000000	    -34.55554627	      4.82386600	    -11.21932137
      4.17500000	     15.30238677	      6.93974160	     17.55569206	     -0.13045458	      0.73433656	     -0.24307761	     10.56944116	     -7.39972383	     -6.59320227	    -18.48092230	     14.67651202	      4.48240495	      0.00000000	    -23.74199097	      0.93742385	     10.19186968	    -44.28953175	     19.14069102	     11.45595632	      0.00000000	    -34.38052027	      5.26713557	    -10.69604494
      4.18000000	     15.38483744	      6.31817793	     17.28030697	     -0.12194107	      0.73420089	     -0.24253876	     10.59469080	     -6.49487960	     -6.33355782	    -19.42634424	     14.30946806	      3.75913710	      0.00000000	    -22.84822958	      0.51424945	      9.83001951	    -46.52031496	     16.81781324	     10.50344545	      0.00000000	    -34.23269480	      5.73248492	    -10.16975635
      4.18500000	     15.47501164	      5.67375363	     17.00526956	     -0.11356064	      0.73411888	     -0.24200884	     10.61336196	     -5.58025774	     -6.16650687	    -20.37550187	     14.06080233	      3.19650327	      0.00000000	    -21.89694708	      0.07708402	      9.47727579	    -48.74165357	     14.48866765	      9.44514767	      0.00000000	    -34.12664497	      6.23045967	     -9.64003217
      4.19000000	     15.56713354	      5.01306992	     16.73708672	     -0.10531812	      0.73409392	     -0.24149453	     10.61438353	     -4.66100970	     -6.06370344	    -21.29812321	     13.93866647	      2.79597510	      0.00000000	    -20.88737261	     -0.36820789	      9.14915112	    -50.93966302	     12.21883811	      8.31094445	      0.00000000	    -34.05784837	      6.75628963	     -9.10929371
      4.19500000	     15.66149019	      4.34232438	     16.47875511	     -0.09721819	      0.73412774	     -0.24099893	     10.58556209	     -3.74229476	     -6.02097172	    -22.17301174	     13.95247936	      2.54669569	      0.00000000	    -19.82575170	     -0.81761753	      8.85188326	    -53.10253967	     10.07460684	      7.11569330	      0.00000000	    -34.03011794	      7.30208106	     -8.57313157
      4.20000000	     15.74728827	      3.66765969	     16.22744755	     -0.08924668	      0.73421115	     -0.24051820	     10.53182001	     -2.83053428	     -6.01627554	    -22.98758726	     14.09100534	      2.42599007	      0.00000000	    -18.71100192	     -1.26113914	      8.59233605	    -55.21460439	      8.11977148	      5.89161730	      0.00000000	    -34.02510847	      7.85510581	     -8.03913446
      4.20500000	     15.91601032	      2.95445830	     15.99476645	     -0.08136914	      0.73443555	     -0.24007588	     10.32967039	     -1.86760026	     -6.08505062	    -23.67952555	     14.35124603	      2.54425328	      0.00000000	    -17.64796441	     -1.77713141	      8.35339550	    -57.24652673	      6.45092348	      4.74033239	      0.00000000	    -34.12884693	      8.48320144	     -7.48619383
      4.21000000	     16.02295751	      2.27633379	     15.76619404	     -0.07364580	      0.73466647	     -0.23965497	     10.15445944	     -0.95948519	     -6.14199086	    -24.31740574	     14.70912223	      2.64340314	      0.00000000	    -16.48684672	     -2.21598957	      8.17768783	    -59.22253668	      5.03298844	      3.50479623	      0.00000000	    -34.21168193	      9.06151355	     -6.94330169
      4.21500000	     16.11035412	      1.61862588	     15.54596621	     -0.06603967	      0.73494866	     -0.23925026	      9.94437807	     -0.08056614	     -6.20467940	    -24.86509095	     15.16852508	      2.80843692	      0.00000000	    -15.27866223	     -2.62218479	      8.04734791	    -61.12312033	      3.92688750	      2.32346382	      0.00000000	    -34.30528919	      9.61680183	     -6.40746724
      4.22000000	     16.12337563	      0.99929171	     15.33854370	     -0.05858165	      0.73522894	     -0.23889969	      9.77547853	      0.71864951	     -6.33988131	    -25.36475063	     15.66917238	      2.99810946	      0.00000000	    -13.96240545	     -2.94588786	      7.98465733	    -62.95854045	      3.12826435	      1.13330428	      0.00000000	    -34.35727301	     10.11941094	     -5.85454096
      4.22500000	     16.17809252	      0.37895553	     15.14556478	     -0.05118835	      0.73562489	     -0.23856100	      9.47657962	      1.54234248	     -6.42097077	    -25.70469581	     16.26543208	      3.28708283	      0.00000000	    -12.67370327	     -3.28935148	      7.94848209	    -64.69036627	      2.65889672	      0.06661348	      0.00000000	    -34.46574645	     10.63888363	     -5.33270921
      4.23000000	     16.26427988	     -0.22229342	     14.95545876	     -0.04386402	      0.73613086	     -0.23824823	      9.06469370	      2.36375558	     -6.44959545	    -25.90399757	     16.89849107	      3.61095744	      0.00000000	    -11.41249458	     -3.62127982	      7.92302453	    -66.30858960	      2.52032747	     -0.93899404	      0.00000000	    -34.62338305	     11.15166207	     -4.83604604
      4.23500000	     16.31643225	     -0.78972325	     14.78052807	     -0.03664009	      0.73668044	     -0.23798780	      8.63393139	      3.13036998	     -6.51585693	    -26.01722771	     17.53559831	      3.92534327	      0.00000000	    -10.09789136	     -3.89700688	      7.94232160	    -67.82957916	      2.63364254	     -1.90733416	      0.00000000	    -34.76573493	     11.62716538	     -4.32036413
      4.24000000	     16.25873444	     -1.31754252	     14.64573404	     -0.02952987	      0.73717817	     -0.23776442	      8.28232869	      3.81412666	     -6.63504144	    -26.08147893	     18.19458268	      4.22854679	      0.00000000	     -8.63225387	     -4.09733100	      8.03588858	    -69.27482407	      2.98415110	     -2.80522283	      0.00000000	    -34.80285342	     12.04951385	     -3.85863702
      4.24500000	     16.31269053	     -1.82514794	     14.46933936	     -0.02240540	      0.73789386	     -0.23756003	      7.70857887	      4.52593786	     -6.63731141	    -25.95593335	     18.82036271	      4.53258633	      0.00000000	     -7.32358044	     -4.30068365	      8.08133299	    -70.53717045	      3.56088626	     -3.63700344	      0.00000000	    -34.96804387	     12.45760267	     -3.32106136
      4.25000000	     16.36087576	     -2.29566892	     14.29957797	     -0.01536470	      0.73865892	     -0.23734955	      7.09858015	      5.20218103	     -6.60195443	    -25.76614130	     19.42573352	      4.81448052	      0.00000000	     -6.00103364	     -4.46866788	      8.13437117	    -71.67892481	      4.29414194	     -4.41360678	      0.00000000	    -35.14233782	     12.82653329	     -2.83955212
      4.25500000	     16.37582358	     -2.74037814	     14.14101786	     -0.00836267	      0.73945669	     -0.23717346	      6.47261551	      5.84092056	     -6.55867030	    -25.49192012	     19.99786976	      5.07258022	      0.00000000	     -4.64301504	     -4.59882312	      8.20828041	    -72.68892618	      5.15582216	     -5.11952291	      0.00000000	    -35.28266721	     13.16120010	     -2.35716280
      4.26000000	     16.37458976	     -3.14616766	     13.98254633	     -0.00138796	      0.74029569	     -0.23702275	      5.81326776	      6.43548472	     -6.48082322	    -25.14243912	     20.53838610	      5.29459272	      0.00000000	     -3.27899913	     -4.68568496	      8.28409938	    -73.55750548	      6.11764798	     -5.74934940	      0.00000000	    -35.40487677	     13.45320913	     -1.88933617
      4.26500000	     16.35895888	     -3.51543215	     13.82029574	      0.00557661	      0.74117602	     -0.23689004	      5.12060443	      6.99015962	     -6.36097802	    -24.72104277	     21.03358261	      5.48147896	      0.00000000	     -1.91747366	     -4.73454323	      8.35383246	    -74.27708910	      7.14173531	     -6.29850438	      0.00000000	    -35.50890147	     13.70177694	     -1.43807142
      4.27000000	     16.33978633	     -3.85508973	     13.64799005	      0.01251437	      0.74209393	     -0.23674127	      4.39726338	      7.51626891	     -6.19548691	    -24.24692091	     21.48309941	      5.64296265	      0.00000000	     -0.56964050	     -4.75951652	      8.41232202	    -74.84642629	      8.18032601	     -6.77182771	      0.00000000	    -35.61681945	     13.90589266	     -0.99501746
      4.27500000	     16.31913442	     -4.15682246	     13.46461904	      0.01945400	      0.74304034	     -0.23662396	      3.63533416	      8.00028034	     -5.98041752	    -23.72152761	     21.89852678	      5.77462412	      0.00000000	      0.75287370	     -4.74808243	      8.45013318	    -75.26863174	      9.22486015	     -7.17959024	      0.00000000	    -35.71297574	     14.07291241	     -0.56581105
      4.28000000	     16.28871083	     -4.42922990	     13.26631210	      0.02640122	      0.74400470	     -0.23650214	      2.84980765	      8.45127089	     -5.71278994	    -23.14919041	     22.26085305	      5.87853921	      0.00000000	      2.05582075	     -4.71534714	      8.46481415	    -75.53855249	     10.24430848	     -7.50169184	      0.00000000	    -35.79728195	     14.19601949	     -0.15141303
